<?xml version="1.0" encoding="utf-8"?>
<!-- Generator: Adobe Illustrator 22.1.0, SVG Export Plug-In . SVG Version: 6.00 Build 0)  -->
<svg version="1.1" id="Ebene_2_1_" xmlns="http://www.w3.org/2000/svg" xmlns:xlink="http://www.w3.org/1999/xlink" x="0px" y="0px"
	 viewBox="0 0 1700.8 850.4" style="enable-background:new 0 0 1700.8 850.4;" xml:space="preserve">
<style type="text/css">
	.st0{fill:none;}
	.st1{fill:#877C76;}
	.st2{fill:#76272A;}
	.st3{fill:#FFFFFF;}
	.st4{fill:#EE7F00;}
	.st5{fill:#802E85;}
	.st6{fill:#771C7F;}
	.st7{fill:#5B4D47;}
</style>
<g>
	<line class="st0" x1="848.8" y1="371.8" x2="848.8" y2="371.8"/>
	<line class="st0" x1="848.8" y1="371.8" x2="848.8" y2="371.8"/>
	<path class="st1" d="M997.2,265.3L997.2,265.3c0,25.4-8.5,51.8-29.3,71.8c-58.2,55.9-119.1,34.7-119.1,34.7l0,0
		c0,0-60.9,21.2-119.1-34.7c-20.8-20-29.3-46.4-29.3-71.8l0,0V291l0,0c0,82.2,66.4,148.8,148.4,148.8s148.4-66.7,148.4-148.9
		c0-0.1,0-0.3,0-0.4L997.2,265.3L997.2,265.3z"/>
	<g>
		<path class="st2" d="M909.9,172.8c-12.8-12.6-46.7-41.6-51.1-90.4c-4.2-12.2-4.9-20.1-4.9-20.2c0,0.6,0.9,47.6,6.4,76.6
			c5.5,28.9,32.4,45.9,32.4,114.3c-0.1,95.4-42.4,117.9-44,118.7c52.5-11.7,91.8-58.5,91.8-114.4
			C940.6,220.4,922.3,184.9,909.9,172.8z"/>
		<path class="st2" d="M787.6,172.8c12.8-12.6,46.7-41.6,51.1-90.4c4.2-12.2,4.9-20.1,4.9-20.2c0,0.6-0.9,47.6-6.4,76.6
			c-5.5,28.9-32.4,45.9-32.4,114.3c0.1,95.4,42.4,117.9,44,118.7c-52.5-11.7-91.8-58.5-91.8-114.4
			C757,220.4,775.3,184.9,787.6,172.8z"/>
		<path class="st3" d="M848.8,371.8c-1.1-0.6-43.9-22.9-44-118.7c-0.1-68.3,26.9-85.4,32.4-114.3c5.5-29.1,6.4-76.2,6.4-76.6H854
			c0,0.4,0.9,47.6,6.4,76.6c5.5,28.9,32.4,45.9,32.4,114.3C892.7,348.9,849.9,371.2,848.8,371.8"/>
		<g>
			<path class="st4" d="M862.2,360.3c0.3-0.3,0.6-0.7,0.9-1C862.8,359.7,862.5,360,862.2,360.3z"/>
			<path class="st4" d="M863.2,359.2c0.3-0.3,0.6-0.7,0.9-1.1C863.8,358.5,863.5,358.9,863.2,359.2z"/>
			<path class="st4" d="M861.3,361.4c0.3-0.3,0.6-0.6,0.9-1C861.9,360.7,861.6,361.1,861.3,361.4z"/>
			<path class="st4" d="M861.2,361.4c-0.3,0.3-0.6,0.6-0.9,0.9C860.7,362.1,860.9,361.8,861.2,361.4z"/>
			<path class="st4" d="M854,62.8c0-0.2,0-0.3,0-0.4C854,62.5,854,62.7,854,62.8z"/>
			<path class="st4" d="M854.1,63.3c-0.1-0.7-0.1-1.1-0.1-1.1s0,0.1,0,0.2c0-0.1,0-0.1,0-0.2C854,62.2,854,62.6,854.1,63.3z"/>
			<path class="st4" d="M864.2,358.1c0.3-0.4,0.6-0.7,0.9-1.1C864.8,357.3,864.5,357.7,864.2,358.1z"/>
			<path class="st4" d="M868.1,352.8c0.3-0.4,0.6-0.9,0.9-1.3C868.7,351.9,868.4,352.4,868.1,352.8z"/>
			<path class="st4" d="M869.2,351.3c0.3-0.5,0.6-0.9,0.9-1.4C869.8,350.4,869.5,350.9,869.2,351.3z"/>
			<path class="st4" d="M870.2,349.8c0.3-0.5,0.6-0.9,0.9-1.4C870.8,348.8,870.5,349.3,870.2,349.8z"/>
			<path class="st4" d="M865.1,356.8c0.3-0.4,0.6-0.8,0.9-1.2C865.7,356.1,865.4,356.5,865.1,356.8z"/>
			<path class="st4" d="M871.2,348.1c0.3-0.5,0.6-1,0.9-1.5C871.8,347.2,871.5,347.6,871.2,348.1z"/>
			<path class="st4" d="M866.1,355.6c0.3-0.4,0.6-0.8,0.9-1.2C866.7,354.7,866.4,355.2,866.1,355.6z"/>
			<path class="st4" d="M867.1,354.2c0.3-0.4,0.6-0.8,0.9-1.3C867.7,353.4,867.4,353.8,867.1,354.2z"/>
			<path class="st4" d="M854,63.1L854,63.1L854,63.1z"/>
			<path class="st4" d="M854.3,72.2c0-0.1,0-0.2,0-0.3C854.3,72,854.3,72.1,854.3,72.2z"/>
			<path class="st4" d="M854.3,71.2c0-0.1,0-0.2,0-0.3C854.3,71,854.3,71.1,854.3,71.2z"/>
			<path class="st4" d="M854.2,69.3L854.2,69.3L854.2,69.3z"/>
			<path class="st4" d="M854.2,70.3c0-0.1,0-0.2,0-0.3C854.2,70.1,854.2,70.2,854.2,70.3z"/>
			<path class="st4" d="M854.3,73.2c0-0.1,0-0.2,0-0.3C854.3,73.1,854.3,73.1,854.3,73.2z"/>
			<path class="st4" d="M854.5,77.8c0-0.1,0-0.2,0-0.3C854.5,77.6,854.5,77.7,854.5,77.8z"/>
			<path class="st4" d="M854.5,76.6C854.5,76.5,854.5,76.5,854.5,76.6C854.5,76.5,854.5,76.5,854.5,76.6z"/>
			<path class="st4" d="M854,64c0-0.1,0-0.2,0-0.3C854,63.8,854,63.9,854,64z"/>
			<path class="st4" d="M854,64.5c0-0.2,0-0.3,0-0.5C854,64.2,854,64.3,854,64.5z"/>
			<path class="st4" d="M854.1,65c0-0.1,0-0.2,0-0.3C854.1,64.8,854.1,64.9,854.1,65z"/>
			<path class="st4" d="M854,63.5L854,63.5L854,63.5z"/>
			<path class="st4" d="M854.1,66.3c0-0.1,0-0.2,0-0.3C854.1,66.1,854.1,66.2,854.1,66.3z"/>
			<path class="st4" d="M854.1,65.6c0-0.1,0-0.1,0-0.2C854.1,65.5,854.1,65.5,854.1,65.6z"/>
			<path class="st4" d="M854.6,79L854.6,79C854.6,78.9,854.6,78.9,854.6,79z"/>
			<path class="st4" d="M854.2,68.6c0-0.1,0-0.3,0-0.4C854.2,68.3,854.2,68.4,854.2,68.6z"/>
			<path class="st4" d="M854.1,67.7L854.1,67.7L854.1,67.7z"/>
			<path class="st4" d="M889.4,296.2c0.1-0.8,0.2-1.5,0.4-2.3C889.6,294.7,889.5,295.4,889.4,296.2z"/>
			<path class="st4" d="M872.2,346.4c0.3-0.5,0.6-1,0.9-1.5C872.8,345.4,872.5,345.9,872.2,346.4z"/>
			<path class="st4" d="M890.4,289.2c0.1-0.8,0.2-1.6,0.3-2.4C890.6,287.7,890.5,288.5,890.4,289.2z"/>
			<path class="st4" d="M888.2,302.8c0.2-0.7,0.3-1.5,0.4-2.2C888.4,301.3,888.3,302,888.2,302.8z"/>
			<path class="st4" d="M888.8,299.5c0.1-0.7,0.3-1.5,0.4-2.3C889.1,298,888.9,298.8,888.8,299.5z"/>
			<path class="st4" d="M887.5,305.9c0.2-0.7,0.3-1.5,0.5-2.2C887.8,304.4,887.6,305.2,887.5,305.9z"/>
			<path class="st4" d="M886.8,309c0.2-0.7,0.3-1.4,0.5-2.2C887.1,307.5,886.9,308.2,886.8,309z"/>
			<path class="st4" d="M890.9,285.6c0.1-0.8,0.2-1.6,0.3-2.4C891.1,284,891,284.8,890.9,285.6z"/>
			<path class="st4" d="M892.6,261.8c0-1,0-2,0.1-2.9C892.7,259.9,892.7,260.9,892.6,261.8z"/>
			<path class="st4" d="M892.7,257.5c0-1.5,0-2.9,0-4.4C892.8,254.6,892.8,256.1,892.7,257.5z"/>
			<path class="st4" d="M891.3,281.9c0.1-0.8,0.2-1.6,0.2-2.4C891.5,280.3,891.4,281.1,891.3,281.9z"/>
			<path class="st4" d="M892.5,266.1c0-0.9,0.1-1.8,0.1-2.7C892.6,264.3,892.5,265.2,892.5,266.1z"/>
			<path class="st4" d="M891.7,278.1c0.1-0.8,0.1-1.6,0.2-2.4C891.8,276.5,891.8,277.3,891.7,278.1z"/>
			<path class="st4" d="M892,274.2c0.1-0.8,0.1-1.7,0.2-2.6C892.1,272.5,892.1,273.3,892,274.2z"/>
			<path class="st4" d="M892.3,270.2c0-0.8,0.1-1.7,0.1-2.5C892.4,268.5,892.3,269.3,892.3,270.2z"/>
			<path class="st4" d="M889.9,292.8c0.1-0.8,0.2-1.6,0.3-2.4C890.2,291.2,890.1,292,889.9,292.8z"/>
			<path class="st4" d="M877.2,336.9c0.3-0.6,0.5-1.2,0.8-1.7C877.7,335.7,877.5,336.3,877.2,336.9z"/>
			<path class="st4" d="M876.2,339c0.3-0.6,0.5-1.1,0.8-1.7C876.8,337.8,876.5,338.4,876.2,339z"/>
			<path class="st4" d="M878.2,334.8c0.3-0.6,0.5-1.2,0.8-1.8C878.7,333.6,878.4,334.2,878.2,334.8z"/>
			<path class="st4" d="M886,311.9c0.2-0.7,0.4-1.4,0.5-2.2C886.4,310.5,886.2,311.2,886,311.9z"/>
			<path class="st4" d="M873.2,344.7c0.3-0.5,0.6-1,0.9-1.6C873.8,343.6,873.5,344.2,873.2,344.7z"/>
			<path class="st4" d="M874.2,342.9c0.3-0.5,0.6-1.1,0.9-1.6C874.8,341.8,874.5,342.3,874.2,342.9z"/>
			<path class="st4" d="M875.2,340.9c0.3-0.6,0.6-1.1,0.8-1.7C875.8,339.8,875.5,340.4,875.2,340.9z"/>
			<path class="st4" d="M879.1,332.6c0.3-0.6,0.5-1.2,0.8-1.8C879.6,331.3,879.4,332,879.1,332.6z"/>
			<path class="st4" d="M884.5,317.6c0.2-0.7,0.4-1.4,0.6-2.1C884.9,316.2,884.7,316.9,884.5,317.6z"/>
			<path class="st4" d="M883.6,320.3c0.2-0.7,0.4-1.4,0.6-2.1C884.1,318.9,883.8,319.6,883.6,320.3z"/>
			<path class="st4" d="M885.3,314.8c0.2-0.7,0.4-1.4,0.6-2.1C885.7,313.4,885.5,314.1,885.3,314.8z"/>
			<path class="st4" d="M880.1,330.3c0.2-0.6,0.5-1.3,0.7-1.9C880.6,329,880.3,329.6,880.1,330.3z"/>
			<path class="st4" d="M881,327.9c0.2-0.6,0.5-1.3,0.7-2C881.5,326.6,881.2,327.3,881,327.9z"/>
			<path class="st4" d="M881.9,325.5c0.2-0.7,0.5-1.3,0.7-2C882.4,324.1,882.1,324.8,881.9,325.5z"/>
			<path class="st4" d="M882.8,322.9c0.2-0.7,0.4-1.4,0.7-2C883.2,321.6,883,322.2,882.8,322.9z"/>
			<path class="st4" d="M858.6,127.2c0-0.3-0.1-0.6-0.1-0.9C858.5,126.6,858.5,126.9,858.6,127.2z"/>
			<path class="st4" d="M854.6,367.8c-0.2,0.2-0.4,0.4-0.6,0.5C854.1,368.1,854.4,368,854.6,367.8z"/>
			<path class="st4" d="M855.4,367.1c0.2-0.2,0.5-0.4,0.7-0.6C855.8,366.7,855.6,366.9,855.4,367.1z"/>
			<path class="st4" d="M854.6,367.7c0.2-0.2,0.5-0.4,0.7-0.6C855.1,367.4,854.9,367.6,854.6,367.7z"/>
			<path class="st4" d="M957.4,184.3c-65.6-31.2-89.8-76.3-98.6-102v0.1c4.4,48.8,38.3,77.8,51.1,90.4
				c12.3,12.2,30.6,47.6,30.6,84.6c0,55.9-39.3,102.7-91.8,114.4l0,0l0,0l0,0c0,0,60.9,21.2,119.1-34.7
				C1018.3,288.7,996.2,202.7,957.4,184.3z"/>
			<path class="st4" d="M851.5,370.1c0.2-0.1,0.3-0.2,0.5-0.3C851.8,369.9,851.7,370,851.5,370.1z"/>
			<path class="st4" d="M852.6,369.3c0.2-0.1,0.4-0.3,0.6-0.4C853,369,852.8,369.2,852.6,369.3z"/>
			<path class="st4" d="M853.3,368.8c0.2-0.2,0.4-0.3,0.6-0.5C853.7,368.5,853.5,368.7,853.3,368.8z"/>
			<path class="st4" d="M852.1,369.7c0.2-0.1,0.3-0.3,0.5-0.4C852.4,369.5,852.2,369.6,852.1,369.7z"/>
			<path class="st4" d="M860.2,137.4c-0.1-0.4-0.1-0.8-0.2-1.2C860,136.7,860.1,137.1,860.2,137.4z"/>
			<path class="st4" d="M859.9,136.1c0-0.2-0.1-0.4-0.1-0.7C859.8,135.6,859.9,135.8,859.9,136.1z"/>
			<path class="st4" d="M859.5,363.3c0.3-0.3,0.6-0.6,0.8-0.9C860,362.7,859.8,363,859.5,363.3z"/>
			<path class="st4" d="M856.9,365.8c0.3-0.2,0.5-0.5,0.8-0.7C857.4,365.3,857.2,365.5,856.9,365.8z"/>
			<path class="st4" d="M856.1,366.5c0.2-0.2,0.5-0.4,0.8-0.7C856.6,366,856.4,366.3,856.1,366.5z"/>
			<path class="st4" d="M857.8,365c0.3-0.2,0.5-0.5,0.8-0.8C858.3,364.5,858,364.7,857.8,365z"/>
			<path class="st4" d="M859.4,363.4c-0.3,0.3-0.5,0.6-0.8,0.8C858.9,363.9,859.1,363.6,859.4,363.4z"/>
			<path class="st4" d="M848.9,371.7L848.9,371.7L848.9,371.7z"/>
			<path class="st4" d="M854.5,65.4C854.4,65.4,854.4,65.4,854.5,65.4C854.4,65.4,854.4,65.4,854.5,65.4z"/>
			<path class="st4" d="M854.9,67.8C854.9,67.8,854.9,67.7,854.9,67.8C854.9,67.7,854.9,67.8,854.9,67.8z"/>
			<path class="st4" d="M854.2,63.8c0-0.1,0-0.2,0-0.2C854.2,63.7,854.2,63.8,854.2,63.8z"/>
			<path class="st4" d="M854.3,64.6c0-0.1,0-0.2,0-0.2S854.3,64.5,854.3,64.6z"/>
			<path class="st4" d="M855.2,69.2C855.2,69.1,855.2,69.1,855.2,69.2C855.2,69.1,855.2,69.1,855.2,69.2z"/>
			<path class="st4" d="M858.2,80.2C858.1,80.1,858.1,80.1,858.2,80.2C858.1,80.1,858.1,80.1,858.2,80.2z"/>
			<path class="st4" d="M856.4,74.1L856.4,74.1L856.4,74.1z"/>
			<path class="st4" d="M849.5,371.4c0.1,0,0.2-0.1,0.2-0.1C849.6,371.3,849.6,371.4,849.5,371.4z"/>
			<path class="st4" d="M849.8,371.2c0.1-0.1,0.2-0.1,0.3-0.2C850,371.1,849.9,371.2,849.8,371.2z"/>
			<path class="st4" d="M850.1,371c0.1-0.1,0.2-0.1,0.3-0.2C850.4,370.9,850.3,370.9,850.1,371z"/>
			<path class="st4" d="M850.6,370.7c0.1-0.1,0.3-0.2,0.4-0.3C850.8,370.6,850.7,370.7,850.6,370.7z"/>
			<path class="st4" d="M851,370.4c0.1-0.1,0.3-0.2,0.4-0.3C851.3,370.3,851.1,370.4,851,370.4z"/>
			<path class="st4" d="M849,371.7C849,371.7,849.1,371.7,849,371.7C849.1,371.6,849.1,371.6,849,371.7z"/>
			<path class="st4" d="M849.2,371.6c0.1,0,0.1-0.1,0.2-0.1C849.3,371.5,849.3,371.5,849.2,371.6z"/>
			<path class="st4" d="M859.7,134.6c0-0.2-0.1-0.3-0.1-0.5C859.6,134.3,859.6,134.5,859.7,134.6z"/>
			<path class="st4" d="M856.2,105.1C856.2,105,856.2,105,856.2,105.1C856.2,105,856.2,105,856.2,105.1z"/>
			<path class="st4" d="M856,101.9c0-0.1,0-0.2,0-0.3C855.9,101.7,855.9,101.8,856,101.9z"/>
			<path class="st4" d="M855.8,100.3c0-0.1,0-0.1,0-0.2C855.8,100.2,855.8,100.3,855.8,100.3z"/>
			<path class="st4" d="M856.5,108.3c0-0.1,0-0.3,0-0.4C856.5,108,856.5,108.1,856.5,108.3z"/>
			<path class="st4" d="M855.5,95.7c0-0.1,0-0.2,0-0.2C855.5,95.6,855.5,95.6,855.5,95.7z"/>
			<path class="st4" d="M856.1,103.5c0-0.1,0-0.3,0-0.4C856.1,103.2,856.1,103.4,856.1,103.5z"/>
			<path class="st4" d="M856.3,106.7c0-0.1,0-0.3,0-0.4C856.3,106.4,856.3,106.5,856.3,106.7z"/>
			<path class="st4" d="M854.6,80.2c0-0.1,0-0.2,0-0.3C854.6,80,854.6,80.1,854.6,80.2z"/>
			<path class="st4" d="M855.7,98.8c0-0.1,0-0.1,0-0.2C855.7,98.7,855.7,98.7,855.7,98.8z"/>
			<path class="st4" d="M854.8,84.2c0-0.1,0-0.2,0-0.3C854.8,83.9,854.8,84.1,854.8,84.2z"/>
			<path class="st4" d="M854.9,85.5c0-0.1,0-0.2,0-0.3C854.9,85.4,854.9,85.4,854.9,85.5z"/>
			<path class="st4" d="M854.7,81.5c0-0.1,0-0.2,0-0.4C854.7,81.3,854.7,81.4,854.7,81.5z"/>
			<path class="st4" d="M859.4,133.2c0-0.2-0.1-0.4-0.1-0.6C859.4,132.8,859.4,133,859.4,133.2z"/>
			<path class="st4" d="M855.4,94.2c0-0.1,0-0.2,0-0.2C855.4,94.1,855.4,94.1,855.4,94.2z"/>
			<path class="st4" d="M855,86.9L855,86.9L855,86.9z"/>
			<path class="st4" d="M855.2,91.2L855.2,91.2L855.2,91.2z"/>
			<path class="st4" d="M855.3,92.7c0-0.1,0-0.2,0-0.3C855.3,92.5,855.3,92.6,855.3,92.7z"/>
			<path class="st4" d="M858.1,124.1c0-0.2-0.1-0.4-0.1-0.6C858.1,123.7,858.1,123.9,858.1,124.1z"/>
			<path class="st4" d="M858.3,125.7c0-0.3-0.1-0.6-0.1-0.8C858.3,125.1,858.3,125.4,858.3,125.7z"/>
			<path class="st4" d="M857.8,121c0-0.2,0-0.4-0.1-0.6C857.7,120.6,857.7,120.8,857.8,121z"/>
			<path class="st4" d="M858,122.6c0-0.2,0-0.3-0.1-0.5C857.9,122.2,857.9,122.4,858,122.6z"/>
			<path class="st4" d="M858.8,128.7c0-0.2,0-0.3-0.1-0.5C858.7,128.4,858.7,128.6,858.8,128.7z"/>
			<path class="st4" d="M859.2,131.7c0-0.1,0-0.1,0-0.2C859.2,131.6,859.2,131.6,859.2,131.7z"/>
			<path class="st4" d="M859,130.2c0-0.1,0-0.1,0-0.2C859,130.1,859,130.2,859,130.2z"/>
			<path class="st4" d="M857.2,116.2c0-0.1,0-0.2,0-0.3C857.2,116.1,857.2,116.2,857.2,116.2z"/>
			<path class="st4" d="M856.9,113.1c0-0.1,0-0.2,0-0.3C856.9,112.9,856.9,113,856.9,113.1z"/>
			<path class="st4" d="M857.1,114.7c0-0.1,0-0.3,0-0.4C857.1,114.4,857.1,114.5,857.1,114.7z"/>
			<path class="st4" d="M857.6,119.4c0-0.1,0-0.2,0-0.3C857.6,119.2,857.6,119.3,857.6,119.4z"/>
			<path class="st4" d="M856.8,111.4L856.8,111.4C856.8,111.4,856.8,111.4,856.8,111.4z"/>
			<path class="st4" d="M857.4,117.8c0-0.1,0-0.2,0-0.2C857.4,117.7,857.4,117.8,857.4,117.8z"/>
			<path class="st4" d="M856.6,109.9c0-0.1,0-0.2,0-0.4C856.6,109.6,856.6,109.7,856.6,109.9z"/>
		</g>
		<g>
			<path class="st5" d="M814.2,321.2c0.2,0.6,0.4,1.1,0.6,1.7C814.6,322.3,814.4,321.8,814.2,321.2z"/>
			<path class="st5" d="M815.1,323.8c0.2,0.6,0.4,1.1,0.6,1.7C815.5,324.9,815.3,324.3,815.1,323.8z"/>
			<path class="st5" d="M813.4,318.6c0.2,0.6,0.3,1.1,0.5,1.7C813.7,319.7,813.6,319.1,813.4,318.6z"/>
			<path class="st5" d="M815.9,326.2c0.2,0.6,0.4,1.1,0.6,1.6C816.3,327.3,816.1,326.8,815.9,326.2z"/>
			<path class="st5" d="M818.7,333.2c0.2,0.5,0.4,1,0.7,1.5C819.1,334.2,818.9,333.7,818.7,333.2z"/>
			<path class="st5" d="M812.6,315.9c0.2,0.6,0.3,1.1,0.5,1.7C812.9,317,812.8,316.4,812.6,315.9z"/>
			<path class="st5" d="M817.8,331c0.2,0.5,0.4,1.1,0.6,1.6C818.2,332,818,331.5,817.8,331z"/>
			<path class="st5" d="M819.7,335.4c0.2,0.5,0.5,1,0.7,1.5C820.1,336.4,819.9,335.9,819.7,335.4z"/>
			<path class="st5" d="M816.8,328.6c0.2,0.5,0.4,1.1,0.6,1.6C817.3,329.7,817.1,329.2,816.8,328.6z"/>
			<path class="st5" d="M808.5,297.9c0.1,0.5,0.2,1.1,0.3,1.6C808.7,299,808.6,298.4,808.5,297.9z"/>
			<path class="st5" d="M807.9,294.6c0.1,0.5,0.2,1,0.3,1.6C808.1,295.6,808,295.1,807.9,294.6z"/>
			<path class="st5" d="M809.1,301.1c0.1,0.5,0.2,1.1,0.3,1.6C809.3,302.2,809.2,301.6,809.1,301.1z"/>
			<path class="st5" d="M811.8,313.1c0.2,0.6,0.3,1.1,0.5,1.7C812.1,314.2,812,313.6,811.8,313.1z"/>
			<path class="st5" d="M809.7,304.2c0.1,0.6,0.2,1.1,0.4,1.7C809.9,305.3,809.8,304.8,809.7,304.2z"/>
			<path class="st5" d="M811.1,310.2c0.1,0.6,0.3,1.1,0.4,1.7C811.4,311.3,811.2,310.8,811.1,310.2z"/>
			<path class="st5" d="M810.4,307.3c0.1,0.6,0.3,1.1,0.4,1.7C810.6,308.4,810.5,307.8,810.4,307.3z"/>
			<path class="st5" d="M823.6,343.3c0.3,0.5,0.5,0.9,0.8,1.4C824.1,344.2,823.8,343.7,823.6,343.3z"/>
			<path class="st5" d="M831.6,355.8c0.3,0.4,0.5,0.7,0.8,1C832.1,356.5,831.9,356.1,831.6,355.8z"/>
			<path class="st5" d="M832.6,357c0.3,0.3,0.5,0.7,0.8,1C833.1,357.7,832.9,357.4,832.6,357z"/>
			<path class="st5" d="M833.6,358.3c0.3,0.3,0.5,0.6,0.8,1C834.1,358.9,833.8,358.6,833.6,358.3z"/>
			<path class="st5" d="M830.6,354.4c0.3,0.4,0.5,0.7,0.8,1.1C831.1,355.2,830.9,354.8,830.6,354.4z"/>
			<path class="st5" d="M829.6,353c0.3,0.4,0.5,0.8,0.8,1.1C830.1,353.8,829.9,353.4,829.6,353z"/>
			<path class="st5" d="M836.4,361.5c0.3,0.3,0.5,0.5,0.8,0.8C836.9,362.1,836.7,361.8,836.4,361.5z"/>
			<path class="st5" d="M834.5,359.4c0.3,0.3,0.5,0.6,0.8,0.9C835,360,834.8,359.7,834.5,359.4z"/>
			<path class="st5" d="M835.5,360.5c0.3,0.3,0.5,0.6,0.8,0.9C836,361.1,835.7,360.8,835.5,360.5z"/>
			<path class="st5" d="M806.9,287.8c0.1,0.5,0.1,1,0.2,1.4C807,288.7,807,288.2,806.9,287.8z"/>
			<path class="st5" d="M822.6,341.4c0.2,0.5,0.5,1,0.7,1.4C823.1,342.4,822.8,341.9,822.6,341.4z"/>
			<path class="st5" d="M820.6,337.4c0.2,0.5,0.5,1,0.7,1.5C821.1,338.4,820.8,338,820.6,337.4z"/>
			<path class="st5" d="M821.6,339.5c0.2,0.5,0.5,1,0.7,1.5C822.1,340.4,821.8,339.9,821.6,339.5z"/>
			<path class="st5" d="M824.6,345.1c0.3,0.5,0.5,0.9,0.8,1.3C825.1,346,824.8,345.5,824.6,345.1z"/>
			<path class="st5" d="M826.6,348.5c0.3,0.4,0.5,0.9,0.8,1.3C827.1,349.3,826.8,348.9,826.6,348.5z"/>
			<path class="st5" d="M827.6,350.1c0.3,0.4,0.5,0.8,0.8,1.2C828.1,350.9,827.9,350.5,827.6,350.1z"/>
			<path class="st5" d="M828.6,351.6c0.3,0.4,0.5,0.8,0.8,1.2C829.1,352.4,828.9,352,828.6,351.6z"/>
			<path class="st5" d="M825.6,346.8c0.3,0.4,0.5,0.9,0.8,1.3C826.1,347.7,825.8,347.2,825.6,346.8z"/>
			<path class="st5" d="M807.4,291.2c0.1,0.5,0.1,1,0.2,1.5C807.5,292.2,807.5,291.7,807.4,291.2z"/>
			<path class="st6" d="M848.8,371.8L848.8,371.8c-52.5-11.7-91.8-58.5-91.8-114.4c0-37,18.3-72.5,30.6-84.6
				c12.8-12.6,46.7-41.6,51.1-90.4c0-0.1,0-0.1,0.1-0.2c-8.7,25.8-32.9,70.9-98.6,102.1c-38.8,18.4-60.9,104.4-10.5,152.8
				C787.8,393,848.8,371.8,848.8,371.8L848.8,371.8z"/>
			<path class="st5" d="M838.9,364.2c-0.2-0.2-0.5-0.5-0.7-0.7C838.5,363.7,838.7,363.9,838.9,364.2z"/>
			<path class="st5" d="M839.1,364.3c0.2,0.2,0.5,0.5,0.7,0.7C839.6,364.8,839.3,364.5,839.1,364.3z"/>
			<path class="st5" d="M843.6,62.2L843.6,62.2L843.6,62.2c0,0-0.1,0.6-0.2,1.8C843.5,62.9,843.6,62.3,843.6,62.2z"/>
			<path class="st5" d="M837.3,362.5c0.2,0.3,0.5,0.5,0.7,0.8C837.8,363,837.6,362.8,837.3,362.5z"/>
			<path class="st5" d="M841.6,366.6c0.2,0.2,0.4,0.4,0.6,0.5C842,366.9,841.8,366.8,841.6,366.6z"/>
			<path class="st5" d="M842.3,367.2c0.2,0.2,0.4,0.3,0.6,0.5C842.7,367.6,842.5,367.4,842.3,367.2z"/>
			<path class="st5" d="M839.9,365.1c0.2,0.2,0.5,0.4,0.7,0.6C840.4,365.5,840.2,365.3,839.9,365.1z"/>
			<path class="st5" d="M840.8,365.9c0.2,0.2,0.4,0.4,0.7,0.6C841.2,366.3,841,366.1,840.8,365.9z"/>
			<path class="st5" d="M841.6,72.3C841.7,72.3,841.7,72.3,841.6,72.3C841.7,72.3,841.7,72.3,841.6,72.3z"/>
			<path class="st5" d="M841.2,74.2c0-0.1,0-0.1,0-0.2C841.2,74.1,841.2,74.1,841.2,74.2z"/>
			<path class="st5" d="M842.4,69.2c0-0.1,0-0.2,0-0.2C842.4,69.1,842.4,69.1,842.4,69.2z"/>
			<path class="st5" d="M806.5,284.3c0,0.4,0.1,0.9,0.1,1.3C806.6,285.2,806.6,284.7,806.5,284.3z"/>
			<path class="st5" d="M843.1,65.5c0-0.1,0-0.2,0.1-0.4C843.1,65.3,843.1,65.4,843.1,65.5z"/>
			<path class="st5" d="M843.2,64.7c0-0.2,0-0.3,0.1-0.4C843.3,64.4,843.3,64.5,843.2,64.7z"/>
			<path class="st5" d="M842.6,67.9c0-0.1,0-0.2,0.1-0.3C842.7,67.7,842.7,67.8,842.6,67.9z"/>
			<path class="st5" d="M842.9,66.6c0-0.1,0-0.1,0-0.2C842.9,66.5,842.9,66.6,842.9,66.6z"/>
			<path class="st5" d="M839.4,80.3c0-0.1,0-0.1,0.1-0.2C839.4,80.1,839.4,80.2,839.4,80.3z"/>
			<path class="st5" d="M843.6,368.3c-0.2-0.1-0.4-0.3-0.5-0.4C843.2,368,843.4,368.1,843.6,368.3z"/>
			<path class="st5" d="M848.2,371.5C848.2,371.5,848.3,371.5,848.2,371.5C848.3,371.5,848.2,371.5,848.2,371.5z"/>
			<path class="st5" d="M848.5,371.6L848.5,371.6L848.5,371.6z"/>
			<path class="st5" d="M847.9,371.3C848,371.3,848,371.4,847.9,371.3C848,371.4,848,371.3,847.9,371.3z"/>
			<path class="st5" d="M805.3,269.9c0,0.1,0,0.1,0,0.2C805.3,270.1,805.3,270,805.3,269.9z"/>
			<path class="st5" d="M806.1,280.7c0,0.4,0.1,0.8,0.1,1.2C806.2,281.5,806.2,281.1,806.1,280.7z"/>
			<path class="st5" d="M805.5,273.5c0,0.2,0,0.4,0,0.7C805.5,273.9,805.5,273.7,805.5,273.5z"/>
			<path class="st5" d="M805.8,277.2c0,0.3,0,0.6,0.1,0.9C805.8,277.8,805.8,277.5,805.8,277.2z"/>
			<path class="st5" d="M847.6,371.1c0.1,0,0.1,0.1,0.2,0.1C847.7,371.2,847.6,371.1,847.6,371.1z"/>
			<path class="st5" d="M845,369.4c0.1,0.1,0.3,0.2,0.4,0.3C845.3,369.6,845.2,369.5,845,369.4z"/>
			<path class="st5" d="M844.4,368.9c0.2,0.1,0.3,0.2,0.5,0.4C844.7,369.2,844.6,369,844.4,368.9z"/>
			<path class="st5" d="M847.1,370.8c0.1,0.1,0.2,0.1,0.3,0.2C847.3,370.9,847.2,370.9,847.1,370.8z"/>
			<path class="st5" d="M843.8,368.4c0.2,0.1,0.3,0.3,0.5,0.4C844.1,368.7,843.9,368.5,843.8,368.4z"/>
			<path class="st5" d="M845.6,369.8c0.1,0.1,0.3,0.2,0.4,0.3C845.9,370,845.8,369.9,845.6,369.8z"/>
			<path class="st5" d="M846.7,370.5c0.1,0.1,0.2,0.1,0.3,0.2C846.9,370.7,846.8,370.6,846.7,370.5z"/>
			<path class="st5" d="M846.2,370.2c0.1,0.1,0.2,0.2,0.4,0.2C846.4,370.4,846.3,370.3,846.2,370.2z"/>
		</g>
		<path class="st3" d="M848.8,371.8c-1.1-0.6-43.9-22.9-44-118.7c-0.1-68.3,26.9-85.4,32.4-114.3c5.5-29.1,6.4-76.2,6.4-76.6H854
			c0,0.4,0.9,47.6,6.4,76.6c5.5,28.9,32.4,45.9,32.4,114.3C892.7,348.9,849.9,371.2,848.8,371.8"/>
	</g>
</g>
<g>
	<g>
		<path class="st7" d="M62.3,528.5h7.4c1.6,0,2.6,1,3.1,2.9l32.1,106h1l31.9-106c0.6-1.9,1.7-2.9,3.1-2.9h7.7c1.8,0,2.3,1,1.7,2.9
			l-36.2,116.5c-0.5,1.9-1.6,2.9-3.4,2.9h-10.6c-1.8,0-3-1-3.6-2.9L60.3,531.4C59.9,529.5,60.5,528.5,62.3,528.5z"/>
		<path class="st7" d="M254.6,650.8h-50.1c-10.4,0-18.6-3-24.6-9.1s-9-14.4-9-24.9v-54.2c0-10.5,3-18.9,9-24.9
			c6-6.1,14.2-9.1,24.6-9.1h20.6c10.4,0,18.6,3,24.7,9.1s9.1,14.4,9.1,24.9v30.5c0,1.9-1,2.9-2.9,2.9h-71c-1.4,0-2.2,0.7-2.2,2.2
			v18.5c0,7.5,1.9,13.3,5.8,17.4c3.8,4.1,9.4,6.1,16.8,6.1h49.2c1.8,0,2.6,0.9,2.6,2.6v5.5C257.2,649.9,256.3,650.8,254.6,650.8z
			 M185,586.3h59.7c1.4,0,2.2-0.7,2.2-2.2v-21.3c0-7.5-1.9-13.3-5.8-17.4c-3.8-4.1-9.4-6.1-16.8-6.1h-18.9c-7.4,0-12.9,2-16.8,6.1
			c-3.8,4.1-5.8,9.9-5.8,17.4v21.3C182.9,585.6,183.6,586.3,185,586.3z"/>
		<path class="st7" d="M300.6,650.8h-7c-1.6,0-2.4-1-2.4-2.9V531.4c0-1.9,0.8-2.9,2.4-2.9h7c1.8,0,2.6,1,2.6,2.9v10.1h1
			c1.8-3.4,4.9-6.3,9.4-9c4.5-2.6,10-4,16.5-4h9.4c1.8,0,2.6,0.9,2.6,2.6v5.8c0,1.8-0.9,2.6-2.6,2.4h-11.3c-7.8,0-13.9,2.4-18.3,7.2
			s-6.6,11.3-6.6,19.4v82C303.3,649.8,302.4,650.8,300.6,650.8z"/>
	</g>
	<g>
		<path class="st7" d="M369.4,543.9h-13.2c-2.2,0-3.4-1-3.4-3.1v-8.9c0-2.2,1.1-3.4,3.4-3.4h13.2c1.6,0,2.4-0.7,2.4-2.2v-20.6
			c0-2.2,1.1-3.4,3.4-3.4H386c2.1,0,3.1,1.1,3.1,3.4v20.6c0,1.4,0.9,2.2,2.6,2.2h25.4c2.4,0,3.6,1.1,3.6,3.4v8.9
			c0,2.1-1.2,3.1-3.6,3.1h-25.4c-1.8,0-2.6,0.7-2.6,2.2v69c0,13.6,7,20.4,21.1,20.4h9.4c2.4,0,3.6,1.1,3.6,3.4v8.9
			c0,2.1-1.2,3.1-3.6,3.1h-11.5c-11,0-19.8-3.1-26.4-9.2c-6.6-6.2-9.8-14.7-9.8-25.8v-69.8C371.8,544.6,371,543.9,369.4,543.9z"/>
		<path class="st7" d="M462.7,650.8h-10.8c-2.2,0-3.4-1.1-3.4-3.4V531.9c0-2.2,1.1-3.4,3.4-3.4h10.8c2.2,0,3.4,1.1,3.4,3.4v9.6h1
			c1.6-3.5,4.6-6.6,9.1-9.1c4.5-2.6,9.7-3.8,15.8-3.8h9.4c2.1,0,3.1,1.1,3.1,3.4v8.9c0,1.1-0.2,2-0.7,2.5c-0.5,0.6-1.3,0.8-2.4,0.6
			h-12.9c-7.2,0-12.7,2.2-16.5,6.5s-5.8,10.2-5.8,17.7v79.4C466.1,649.7,464.9,650.8,462.7,650.8z"/>
		<path class="st7" d="M571.6,650.8h-12.5c-11,0-19.7-3.1-26-9.4c-6.3-6.2-9.5-14.9-9.5-26.1V564c0-11.2,3.2-19.9,9.5-26.1
			c6.3-6.2,15-9.4,26-9.4h52c2.2,0,3.4,1.1,3.4,3.4v115.6c0,2.2-1.1,3.4-3.4,3.4h-10.8c-2.2,0-3.4-1.1-3.4-3.4v-9.4h-1
			C592,646.6,583.9,650.8,571.6,650.8z M597,613.4V546c0-1.4-0.8-2.2-2.4-2.2H561c-13.3,0-19.9,7-19.9,20.9v49.9
			c0,13.9,6.6,20.9,19.9,20.9h13.7c7.2,0,12.7-1.9,16.5-5.8C595.1,625.9,597,620.4,597,613.4z"/>
		<path class="st7" d="M694.3,650.8h-13.4c-10.9,0-19.3-3.1-25.4-9.4c-6.1-6.2-9.1-14.9-9.1-26.1v-83.4c0-2.2,1.1-3.4,3.4-3.4h10.8
			c2.2,0,3.4,1.1,3.4,3.4v82.7c0,13.9,6.6,20.9,19.9,20.9h13.7c7.2,0,12.7-1.9,16.5-5.8c3.8-3.8,5.8-9.3,5.8-16.3v-81.5
			c0-2.2,1.1-3.4,3.4-3.4h10.8c2.2,0,3.4,1.1,3.4,3.4v115.6c0,2.2-1.1,3.4-3.4,3.4h-10.8c-2.2,0-3.4-1.1-3.4-3.4v-9.4h-1
			C714.8,646.6,706.7,650.8,694.3,650.8z"/>
		<path class="st7" d="M854.3,650.8h-50.8c-11,0-19.7-3.1-26-9.4c-6.3-6.2-9.5-14.9-9.5-26.1V564c0-11.2,3.2-19.9,9.5-26.1
			c6.3-6.2,15-9.4,26-9.4h20.1c11,0,19.7,3.1,25.9,9.4c6.2,6.2,9.4,14.9,9.4,26.1v30.5c0,2.4-1.1,3.6-3.4,3.6h-67.9
			c-1.6,0-2.4,0.7-2.4,2.2v14.6c0,13.9,6.7,20.9,20.1,20.9h48.9c2.2,0,3.4,1.1,3.4,3.4v8.6C857.6,649.8,856.5,650.8,854.3,650.8z
			 M787.6,585.3h51.8c1.6,0,2.4-0.8,2.4-2.4v-18.5c0-13.7-6.7-20.6-20.1-20.6h-16.3c-13.4,0-20.1,6.9-20.1,20.6v18.5
			C785.2,584.5,786,585.3,787.6,585.3z"/>
		<path class="st7" d="M902.5,650.8h-10.8c-2.2,0-3.4-1.1-3.4-3.4V531.9c0-2.2,1.1-3.4,3.4-3.4h10.8c2.2,0,3.4,1.1,3.4,3.4v9.4h1
			c4-8.5,12.1-12.7,24.5-12.7h13.4c10.9,0,19.3,3.1,25.4,9.4c6.1,6.2,9.1,14.9,9.1,26.1v83.5c0,2.2-1.1,3.4-3.4,3.4h-10.8
			c-2.2,0-3.4-1.1-3.4-3.4v-82.7c0-13.9-6.7-20.9-20.1-20.9h-13.4c-7.2,0-12.7,1.9-16.6,5.8c-3.8,3.8-5.8,9.3-5.8,16.3v81.5
			C905.8,649.7,904.7,650.8,902.5,650.8z"/>
	</g>
	<g>
		<path class="st7" d="M1052.1,650.8h-41.7c-1.8,0-2.6-0.9-2.6-2.6v-5.5c0-1.6,0.9-2.4,2.6-2.4h40.5c14.4,0,21.6-5.6,21.6-16.8v-5.8
			c0-10.4-4.5-17.2-13.4-20.4l-30-11.5c-8.2-3.2-14-7-17.4-11.3s-5.2-10.3-5.2-18c0-18.7,10.3-28.1,30.9-28.1h38.8
			c1.8,0,2.6,0.9,2.6,2.6v5.5c0,1.6-0.9,2.4-2.6,2.4h-37.6c-6.6,0-11.5,1.4-14.7,4.3c-3.3,2.9-4.9,6.2-4.9,10.1v5.5
			c0,4.5,1.2,8,3.7,10.5c2.5,2.6,6.3,4.7,11.4,6.5l30,12c8.3,2.7,13.9,6.8,16.7,12.1c2.8,5.4,4.2,12.8,4.2,22.4
			c0,9.6-2.7,16.7-8,21.3C1071.6,648.5,1063.3,650.8,1052.1,650.8z"/>
		<path class="st7" d="M1155.5,650.8h-41.7c-1.8,0-2.6-0.9-2.6-2.6v-5.5c0-1.6,0.9-2.4,2.6-2.4h40.5c14.4,0,21.6-5.6,21.6-16.8v-5.8
			c0-10.4-4.5-17.2-13.4-20.4l-30-11.5c-8.2-3.2-14-7-17.4-11.3s-5.2-10.3-5.2-18c0-18.7,10.3-28.1,30.9-28.1h38.8
			c1.8,0,2.6,0.9,2.6,2.6v5.5c0,1.6-0.9,2.4-2.6,2.4H1142c-6.6,0-11.5,1.4-14.7,4.3c-3.3,2.9-4.9,6.2-4.9,10.1v5.5
			c0,4.5,1.2,8,3.7,10.5c2.5,2.6,6.3,4.7,11.4,6.5l30,12c8.3,2.7,13.9,6.8,16.7,12.1c2.8,5.4,4.2,12.8,4.2,22.4
			c0,9.6-2.7,16.7-8,21.3C1174.9,648.5,1166.7,650.8,1155.5,650.8z"/>
		<path class="st7" d="M1265.8,650.8h-15.3c-10.4,0-18.6-3-24.6-9.1s-9-14.4-9-24.9v-54.2c0-10.5,3-18.9,9-24.9
			c6-6.1,14.2-9.1,24.6-9.1h50.8c1.6,0,2.4,1,2.4,2.9V648c0,1.9-0.8,2.9-2.4,2.9h-7c-1.8,0-2.6-1-2.6-2.9v-9.6h-1
			C1286.5,646.6,1278.2,650.8,1265.8,650.8z M1291.7,616.5v-75.1c0-1.4-0.8-2.2-2.4-2.2h-37.9c-7.4,0-13,2.1-16.8,6.2
			c-3.8,4.2-5.8,10-5.8,17.5v53.2c0,7.5,1.9,13.4,5.8,17.5c3.8,4.2,9.4,6.2,16.8,6.2h15.6c7.7,0,13.7-2,18.1-6.1
			C1289.5,629.8,1291.7,624,1291.7,616.5z"/>
		<path class="st7" d="M1408,642.7v5.5c0,1.8-0.9,2.6-2.6,2.6h-34.5c-10.4,0-18.6-3-24.6-9.1s-9-14.4-9-24.9v-54.2
			c0-10.5,3-18.9,9-24.9c6-6.1,14.2-9.1,24.6-9.1h34.5c1.8,0,2.6,0.9,2.6,2.6v5.8c0,1.6-0.9,2.4-2.6,2.4h-33.6
			c-7.4,0-13,2.1-16.8,6.2c-3.8,4.2-5.8,10-5.8,17.5v53.2c0,7.5,1.9,13.4,5.8,17.5c3.8,4.2,9.4,6.2,16.8,6.2h33.6
			C1407.1,640,1408,640.9,1408,642.7z"/>
		<path class="st7" d="M1443.5,650.8h-7c-1.6,0-2.4-1-2.4-2.9V485.1c0-1.9,0.8-2.9,2.4-2.9h7c1.8,0,2.6,1,2.6,2.9V541h1
			c4.5-8.3,12.8-12.5,24.9-12.5h15.8c10.2,0,18.3,3,24.2,9.1s8.9,14.4,8.9,24.9v85.4c0,1.9-0.8,2.9-2.4,2.9h-7c-1.8,0-2.6-1-2.6-2.9
			V563c0-7.5-1.9-13.3-5.8-17.5c-3.8-4.2-9.4-6.2-16.8-6.2h-15.6c-7.7,0-13.7,2-18.1,6.1s-6.6,9.9-6.6,17.4v85.1
			C1446.1,649.8,1445.2,650.8,1443.5,650.8z"/>
		<path class="st7" d="M1637,650.8h-50.1c-10.4,0-18.6-3-24.6-9.1s-9-14.4-9-24.9v-54.2c0-10.5,3-18.9,9-24.9
			c6-6.1,14.2-9.1,24.6-9.1h20.6c10.4,0,18.6,3,24.7,9.1s9.1,14.4,9.1,24.9v30.5c0,1.9-1,2.9-2.9,2.9h-71c-1.4,0-2.2,0.7-2.2,2.2
			v18.5c0,7.5,1.9,13.3,5.8,17.4c3.8,4.1,9.4,6.1,16.8,6.1h49.2c1.8,0,2.6,0.9,2.6,2.6v5.5C1639.6,649.9,1638.7,650.8,1637,650.8z
			 M1567.4,586.3h59.7c1.4,0,2.2-0.7,2.2-2.2v-21.3c0-7.5-1.9-13.3-5.8-17.4c-3.8-4.1-9.4-6.1-16.8-6.1h-18.9c-7.4,0-13,2-16.8,6.1
			s-5.8,9.9-5.8,17.4v21.3C1565.3,585.6,1566,586.3,1567.4,586.3z"/>
	</g>
	<g>
		<path class="st7" d="M82.9,772.4h-4.6c-1,0-1.4-0.5-1.4-1.4v-57.4c0-0.6-0.3-0.9-1-0.9h-14c-1,0-1.5-0.5-1.5-1.4v-3.7
			c0-1,0.5-1.4,1.5-1.4h37.7c1,0,1.5,0.5,1.5,1.4v3.7c0,1-0.5,1.4-1.5,1.4h-14c-0.7,0-1,0.3-1,0.9V771
			C84.4,772,83.9,772.4,82.9,772.4z"/>
		<path class="st7" d="M145.8,772.4h-21.9c-4.7,0-8.5-1.3-11.2-4s-4.1-6.4-4.1-11.2v-22.1c0-4.8,1.4-8.6,4.1-11.2
			c2.7-2.7,6.4-4,11.2-4h8.7c4.7,0,8.5,1.3,11.1,4c2.7,2.7,4,6.4,4,11.2v13.1c0,1-0.5,1.5-1.4,1.5h-29.2c-0.7,0-1,0.3-1,0.9v6.3
			c0,6,2.9,9,8.7,9h21c1,0,1.4,0.5,1.4,1.4v3.7C147.3,772,146.8,772.4,145.8,772.4z M117.2,744.3h22.3c0.7,0,1-0.3,1-1v-7.9
			c0-5.9-2.9-8.9-8.7-8.9h-7c-5.8,0-8.7,3-8.7,8.9v7.9C116.1,743.9,116.5,744.3,117.2,744.3z"/>
		<path class="st7" d="M180.1,772.4h-5.4c-4.7,0-8.5-1.3-11.2-4s-4.1-6.4-4.1-11.2v-22.1c0-4.8,1.4-8.6,4.1-11.2
			c2.7-2.7,6.4-4,11.2-4h22.4c1,0,1.4,0.5,1.4,1.4V771c0,1-0.5,1.4-1.4,1.4h-4.6c-1,0-1.4-0.5-1.4-1.4v-4h-0.4
			C188.9,770.6,185.4,772.4,180.1,772.4z M191,756.4v-29c0-0.6-0.3-0.9-1-0.9h-14.4c-5.7,0-8.6,3-8.6,9V757c0,6,2.9,9,8.6,9h5.9
			c3.1,0,5.5-0.8,7.1-2.5C190.2,761.7,191,759.4,191,756.4z"/>
		<path class="st7" d="M218.9,772.4h-4.6c-1,0-1.4-0.5-1.4-1.4v-49.7c0-1,0.5-1.4,1.4-1.4h4.6c1,0,1.4,0.5,1.4,1.4v4h0.4
			c1.9-3.6,5.6-5.5,10.9-5.5h3.8c6.1,0,10.2,2.3,12.6,7c1.1-2.3,2.8-4,5.2-5.2s4.9-1.8,7.5-1.8h3.6c4.7,0,8.3,1.3,10.9,4
			s3.9,6.4,3.9,11.2v35.9c0,1-0.5,1.4-1.4,1.4h-4.6c-1,0-1.4-0.5-1.4-1.4v-35.6c0-6-2.9-9-8.7-9h-3.4c-3.1,0-5.5,0.9-7.2,2.6
			c-1.7,1.8-2.5,4.1-2.5,7.2v34.8c0,1-0.5,1.4-1.4,1.4h-4.6c-1,0-1.4-0.5-1.4-1.4v-35.6c0-6-2.9-9-8.7-9H230c-3.1,0-5.5,0.8-7.1,2.5
			c-1.7,1.7-2.5,4-2.5,7v35.1C220.3,772,219.8,772.4,218.9,772.4z"/>
		<path class="st7" d="M312.5,742.6h-21c-1,0-1.4-0.5-1.4-1.4v-3.4c0-1,0.5-1.4,1.4-1.4h21c1,0,1.4,0.5,1.4,1.4v3.4
			C313.9,742.1,313.4,742.6,312.5,742.6z"/>
		<path class="st7" d="M371.5,772.4h-5.8c-4.7,0-8.3-1.3-10.9-4s-3.9-6.4-3.9-11.2v-35.9c0-1,0.5-1.4,1.4-1.4h4.6
			c1,0,1.4,0.5,1.4,1.4v35.6c0,6,2.9,9,8.6,9h5.9c3.1,0,5.5-0.8,7.1-2.5c1.7-1.7,2.5-4,2.5-7v-35.1c0-1,0.5-1.4,1.4-1.4h4.6
			c1,0,1.4,0.5,1.4,1.4V771c0,1-0.5,1.4-1.4,1.4h-4.6c-1,0-1.4-0.5-1.4-1.4v-4H382C380.3,770.6,376.8,772.4,371.5,772.4z"/>
		<path class="st7" d="M410.3,772.4h-4.6c-1,0-1.4-0.5-1.4-1.4v-49.7c0-1,0.5-1.4,1.4-1.4h4.6c1,0,1.4,0.5,1.4,1.4v4h0.4
			c1.7-3.6,5.2-5.5,10.5-5.5h5.8c4.7,0,8.3,1.3,10.9,4s3.9,6.4,3.9,11.2v35.9c0,1-0.5,1.4-1.4,1.4h-4.6c-1,0-1.4-0.5-1.4-1.4v-35.6
			c0-6-2.9-9-8.7-9h-5.8c-3.1,0-5.5,0.8-7.1,2.5c-1.7,1.7-2.5,4-2.5,7v35.1C411.7,772,411.2,772.4,410.3,772.4z"/>
		<path class="st7" d="M476.9,772.4h-6.1c-4.7,0-8.3-1.3-10.9-4s-3.9-6.4-3.9-11.2v-22.1c0-4.8,1.3-8.6,3.9-11.2
			c2.6-2.7,6.3-4,10.9-4h6.1c5.4,0,8.9,1.8,10.6,5.5h0.4v-23.9c0-1,0.4-1.4,1.3-1.4h4.7c0.9,0,1.3,0.5,1.3,1.4v69.6
			c0,1-0.4,1.4-1.3,1.4h-4.7c-0.9,0-1.3-0.5-1.3-1.4v-4h-0.4C485.8,770.6,482.3,772.4,476.9,772.4z M487.9,756.4V736
			c0-3-0.8-5.4-2.5-7c-1.7-1.7-4-2.5-7.1-2.5H472c-5.7,0-8.6,3-8.6,9V757c0,6,2.9,9,8.6,9h6.3c3.1,0,5.5-0.8,7.1-2.5
			C487.1,761.7,487.9,759.4,487.9,756.4z"/>
	</g>
	<g>
		<path class="st7" d="M542.8,772.4h-4.6c-1,0-1.4-0.5-1.4-1.4v-62.9c0-1,0.5-1.4,1.4-1.4h23.9c4.7,0,8.4,1.3,11.1,4s4,6.4,4,11.1
			v11.4c0,4.8-1.3,8.5-4,11.2s-6.3,4-11.1,4h-16.8c-0.7,0-1,0.3-1,0.9v21.8C544.2,772,543.8,772.4,542.8,772.4z M545.3,741.6h15.9
			c5.7,0,8.6-2.9,8.6-8.8v-10.7c0-5.9-2.9-8.9-8.6-8.9h-15.9c-0.7,0-1,0.3-1,0.9v26.6C544.2,741.3,544.6,741.6,545.3,741.6z"/>
		<path class="st7" d="M625.4,772.4h-21.7c-4.7,0-8.4-1.3-11.1-4s-4-6.4-4-11.2v-21.9c0-4.8,1.3-8.5,4-11.2s6.4-4,11.1-4h8.6
			c4.7,0,8.4,1.3,11.1,4s4,6.4,4,11.2v13c0,1-0.5,1.5-1.4,1.5h-29c-0.7,0-1,0.3-1,0.9v6.2c0,5.9,2.9,8.9,8.6,8.9h20.9
			c1,0,1.4,0.5,1.4,1.4v3.7C626.8,772,626.4,772.4,625.4,772.4z M596.9,744.5H619c0.7,0,1-0.3,1-1v-7.9c0-5.9-2.9-8.8-8.6-8.8h-7
			c-5.7,0-8.6,2.9-8.6,8.8v7.9C595.9,744.2,596.3,744.5,596.9,744.5z"/>
		<path class="st7" d="M646,772.4h-4.6c-1,0-1.4-0.5-1.4-1.4v-49.3c0-1,0.5-1.4,1.4-1.4h4.6c1,0,1.4,0.5,1.4,1.4v4.1h0.4
			c0.7-1.5,2-2.8,3.9-3.9c1.9-1.1,4.2-1.6,6.8-1.6h4c0.9,0,1.3,0.5,1.3,1.4v3.8c0,0.5-0.1,0.8-0.3,1.1c-0.2,0.2-0.5,0.3-1,0.3H657
			c-3.1,0-5.4,0.9-7.1,2.8c-1.6,1.8-2.5,4.4-2.5,7.6v33.9C647.4,772,646.9,772.4,646,772.4z"/>
		<path class="st7" d="M690.7,772.4h-18.2c-1,0-1.4-0.5-1.4-1.4v-3.6c0-0.9,0.5-1.3,1.4-1.3h17.2c5.3,0,8-2,8-5.9v-1.9
			c0-3.6-1.7-6.1-5.2-7.5l-12.1-5.1c-3.5-1.4-6-3.1-7.5-5.1c-1.5-1.9-2.2-4.5-2.2-7.7c0-8.4,4.6-12.6,13.8-12.6h16.8
			c1,0,1.4,0.5,1.4,1.4v3.6c0,0.9-0.5,1.3-1.4,1.3h-15.5c-2.5,0-4.3,0.5-5.6,1.5s-1.9,2.2-1.9,3.6v1.7c0,2.9,1.9,5,5.8,6.5l12.1,5.4
			c3.5,1.4,5.9,3.2,7.2,5.4c1.3,2.3,1.9,5.4,1.9,9.3C705.3,768.3,700.4,772.4,690.7,772.4z"/>
		<path class="st7" d="M740.2,772.4h-8.8c-4.7,0-8.4-1.3-11.1-4s-4-6.4-4-11.2v-21.9c0-4.8,1.3-8.5,4-11.2s6.4-4,11.1-4h8.8
			c4.7,0,8.4,1.3,11.1,4s4,6.4,4,11.2v21.9c0,4.8-1.3,8.5-4,11.2S744.9,772.4,740.2,772.4z M723.5,712.3V702c0-1,0.4-1.4,1.3-1.4
			h4.4c0.9,0,1.3,0.4,1.3,1.3v10.4c0,1-0.4,1.4-1.3,1.4h-4.4C724,713.7,723.5,713.2,723.5,712.3z M732.2,765.9h7.2
			c5.7,0,8.6-2.9,8.6-8.8v-21.5c0-5.9-2.9-8.8-8.6-8.8h-7.2c-5.7,0-8.6,2.9-8.6,8.8v21.5C723.6,763,726.5,765.9,732.2,765.9z
			 M741,712.3V702c0-1,0.4-1.4,1.3-1.4h4.4c0.9,0,1.3,0.4,1.3,1.3v10.4c0,1-0.4,1.4-1.3,1.4h-4.4C741.5,713.7,741,713.2,741,712.3z"
			/>
		<path class="st7" d="M774.5,772.4h-4.6c-1,0-1.4-0.5-1.4-1.4v-49.3c0-1,0.5-1.4,1.4-1.4h4.6c1,0,1.4,0.5,1.4,1.4v4h0.4
			c1.7-3.6,5.2-5.4,10.4-5.4h5.7c4.6,0,8.3,1.3,10.8,4c2.6,2.7,3.9,6.4,3.9,11.2v35.6c0,1-0.5,1.4-1.4,1.4h-4.6
			c-1,0-1.4-0.5-1.4-1.4v-35.3c0-5.9-2.9-8.9-8.6-8.9h-5.7c-3.1,0-5.4,0.8-7.1,2.5c-1.6,1.6-2.5,4-2.5,7v34.8
			C775.9,772,775.4,772.4,774.5,772.4z"/>
		<path class="st7" d="M827.4,772.4h-4.6c-1,0-1.4-0.5-1.4-1.4v-69.1c0-1,0.5-1.4,1.4-1.4h4.6c1,0,1.4,0.5,1.4,1.4V771
			C828.8,772,828.4,772.4,827.4,772.4z"/>
		<path class="st7" d="M844,711.7v-9.6c0-1,0.4-1.4,1.3-1.4h4.7c1,0,1.4,0.5,1.4,1.4v9.6c0,1-0.5,1.4-1.4,1.4h-4.7
			C844.4,713.1,844,712.6,844,711.7z M844,771v-49.3c0-1,0.4-1.4,1.3-1.4h4.7c1,0,1.4,0.5,1.4,1.4V771c0,1-0.5,1.4-1.4,1.4h-4.6
			C844.5,772.4,844,772,844,771z"/>
		<path class="st7" d="M896.5,767.3v3.8c0,0.9-0.5,1.3-1.4,1.3h-14.8c-4.7,0-8.4-1.3-11.1-4s-4-6.4-4-11.2v-21.9
			c0-4.8,1.3-8.5,4-11.2s6.4-4,11.1-4h14.8c1,0,1.4,0.5,1.4,1.4v3.8c0,0.9-0.5,1.3-1.4,1.3h-14c-5.7,0-8.5,3-8.5,8.9v21.3
			c0,5.9,2.8,8.9,8.5,8.9h14C896,765.9,896.5,766.4,896.5,767.3z"/>
		<path class="st7" d="M912.9,772.4h-4.6c-1,0-1.4-0.5-1.4-1.4v-69.1c0-1,0.5-1.4,1.4-1.4h4.6c1,0,1.4,0.5,1.4,1.4v23.7h0.4
			c1.7-3.6,5.2-5.4,10.4-5.4h5.7c4.6,0,8.3,1.3,10.8,4c2.6,2.7,3.9,6.4,3.9,11.2V771c0,1-0.5,1.4-1.4,1.4h-4.6c-1,0-1.4-0.5-1.4-1.4
			v-35.3c0-5.9-2.9-8.9-8.6-8.9h-5.7c-3.1,0-5.4,0.8-7.1,2.5c-1.6,1.6-2.5,4-2.5,7v34.8C914.4,772,913.9,772.4,912.9,772.4z"/>
		<path class="st7" d="M965.3,772.4h-4.6c-1,0-1.4-0.5-1.4-1.4v-69.1c0-1,0.5-1.4,1.4-1.4h4.6c1,0,1.4,0.5,1.4,1.4V771
			C966.8,772,966.3,772.4,965.3,772.4z M988.9,720.3h5.1c0.6,0,0.9,0.2,1.1,0.5c0.2,0.3,0.1,0.7-0.3,1.2l-15,23.3v0.4l16.6,25.2
			c0.3,0.5,0.3,0.9,0.1,1.2s-0.6,0.5-1.1,0.5h-4.8c-1.3,0-2.3-0.5-2.9-1.4l-15.8-24.4c-0.4-0.7-0.4-1.4,0-2.2l14.5-22.9
			C986.8,720.7,987.6,720.3,988.9,720.3z"/>
		<path class="st7" d="M1040.4,772.4h-21.7c-4.7,0-8.4-1.3-11.1-4c-2.7-2.7-4-6.4-4-11.2v-21.9c0-4.8,1.3-8.5,4-11.2s6.4-4,11.1-4
			h8.6c4.7,0,8.4,1.3,11,4c2.7,2.7,4,6.4,4,11.2v13c0,1-0.5,1.5-1.4,1.5h-29c-0.7,0-1,0.3-1,0.9v6.2c0,5.9,2.9,8.9,8.6,8.9h20.9
			c1,0,1.4,0.5,1.4,1.4v3.7C1041.9,772,1041.4,772.4,1040.4,772.4z M1012,744.5h22.1c0.7,0,1-0.3,1-1v-7.9c0-5.9-2.9-8.8-8.6-8.8h-7
			c-5.7,0-8.6,2.9-8.6,8.8v7.9C1011,744.2,1011.3,744.5,1012,744.5z"/>
		<path class="st7" d="M1055.5,711.7v-9.6c0-1,0.4-1.4,1.3-1.4h4.7c1,0,1.4,0.5,1.4,1.4v9.6c0,1-0.5,1.4-1.4,1.4h-4.7
			C1055.9,713.1,1055.5,712.6,1055.5,711.7z M1055.5,771v-49.3c0-1,0.4-1.4,1.3-1.4h4.7c1,0,1.4,0.5,1.4,1.4V771
			c0,1-0.5,1.4-1.4,1.4h-4.6C1056,772.4,1055.5,772,1055.5,771z"/>
		<path class="st7" d="M1079.5,726.8h-5.6c-1,0-1.4-0.4-1.4-1.3v-3.8c0-1,0.5-1.4,1.4-1.4h5.6c0.7,0,1-0.3,1-0.9v-8.8
			c0-1,0.5-1.4,1.4-1.4h4.6c0.9,0,1.3,0.5,1.3,1.4v8.8c0,0.6,0.4,0.9,1.1,0.9h10.8c1,0,1.5,0.5,1.5,1.4v3.8c0,0.9-0.5,1.3-1.5,1.3
			h-10.8c-0.8,0-1.1,0.3-1.1,0.9v29.5c0,5.8,3,8.7,9,8.7h4c1,0,1.5,0.5,1.5,1.4v3.8c0,0.9-0.5,1.3-1.5,1.3h-4.9
			c-4.7,0-8.5-1.3-11.3-3.9s-4.2-6.3-4.2-11v-29.8C1080.6,727.1,1080.2,726.8,1079.5,726.8z"/>
		<path class="st7" d="M1131,772.4h-18.2c-1,0-1.4-0.5-1.4-1.4v-3.6c0-0.9,0.5-1.3,1.4-1.3h17.2c5.3,0,8-2,8-5.9v-1.9
			c0-3.6-1.7-6.1-5.2-7.5l-12.1-5.1c-3.5-1.4-6-3.1-7.5-5.1c-1.5-1.9-2.3-4.5-2.3-7.7c0-8.4,4.6-12.6,13.8-12.6h16.8
			c1,0,1.4,0.5,1.4,1.4v3.6c0,0.9-0.5,1.3-1.4,1.3H1126c-2.5,0-4.3,0.5-5.6,1.5s-1.9,2.2-1.9,3.6v1.7c0,2.9,1.9,5,5.8,6.5l12.1,5.4
			c3.5,1.4,6,3.2,7.2,5.4c1.3,2.3,1.9,5.4,1.9,9.3C1145.6,768.3,1140.8,772.4,1131,772.4z"/>
		<path class="st7" d="M1193.4,772.4h-21.7c-4.7,0-8.4-1.3-11.1-4s-4-6.4-4-11.2v-21.9c0-4.8,1.3-8.5,4-11.2s6.4-4,11.1-4h8.6
			c4.7,0,8.4,1.3,11,4c2.7,2.7,4,6.4,4,11.2v13c0,1-0.5,1.5-1.4,1.5h-29c-0.7,0-1,0.3-1,0.9v6.2c0,5.9,2.9,8.9,8.6,8.9h20.9
			c1,0,1.4,0.5,1.4,1.4v3.7C1194.9,772,1194.4,772.4,1193.4,772.4z M1165,744.5h22.1c0.7,0,1-0.3,1-1v-7.9c0-5.9-2.9-8.8-8.6-8.8h-7
			c-5.7,0-8.6,2.9-8.6,8.8v7.9C1164,744.2,1164.3,744.5,1165,744.5z"/>
		<path class="st7" d="M1214,772.4h-4.6c-1,0-1.4-0.5-1.4-1.4v-49.3c0-1,0.5-1.4,1.4-1.4h4.6c1,0,1.4,0.5,1.4,1.4v4h0.4
			c1.7-3.6,5.2-5.4,10.4-5.4h5.7c4.6,0,8.3,1.3,10.8,4c2.6,2.7,3.9,6.4,3.9,11.2v35.6c0,1-0.5,1.4-1.4,1.4h-4.6
			c-1,0-1.4-0.5-1.4-1.4v-35.3c0-5.9-2.9-8.9-8.6-8.9h-5.7c-3.1,0-5.4,0.8-7.1,2.5c-1.6,1.6-2.5,4-2.5,7v34.8
			C1215.4,772,1214.9,772.4,1214,772.4z"/>
		<path class="st7" d="M1262.3,726.8h-5.6c-1,0-1.4-0.4-1.4-1.3v-3.8c0-1,0.5-1.4,1.4-1.4h5.6c0.7,0,1-0.3,1-0.9v-8.8
			c0-1,0.5-1.4,1.4-1.4h4.6c0.9,0,1.3,0.5,1.3,1.4v8.8c0,0.6,0.4,0.9,1.1,0.9h10.8c1,0,1.5,0.5,1.5,1.4v3.8c0,0.9-0.5,1.3-1.5,1.3
			h-10.8c-0.8,0-1.1,0.3-1.1,0.9v29.5c0,5.8,3,8.7,9,8.7h4c1,0,1.5,0.5,1.5,1.4v3.8c0,0.9-0.5,1.3-1.5,1.3h-4.9
			c-4.7,0-8.5-1.3-11.3-3.9s-4.2-6.3-4.2-11v-29.8C1263.3,727.1,1263,726.8,1262.3,726.8z"/>
		<path class="st7" d="M1312.2,772.4h-6.2c-1,0-1.5-0.5-1.7-1.4l-13.1-49.3c-0.2-1,0.1-1.4,1-1.4h5.2c0.9,0,1.4,0.5,1.6,1.4
			l9.9,41.7h0.6l10.5-41.7c0.2-1,0.8-1.4,1.6-1.4h4.7c1,0,1.6,0.5,1.8,1.4l10.2,41.7h0.6l10-41.7c0.2-1,0.7-1.4,1.6-1.4h5.2
			c0.9,0,1.2,0.5,1,1.4l-13.1,49.3c-0.2,1-0.8,1.4-1.7,1.4h-6.3c-0.9,0-1.4-0.5-1.6-1.4l-9.9-40.7h-0.5l-9.8,40.7
			C1313.8,772,1313.2,772.4,1312.2,772.4z"/>
		<path class="st7" d="M1366.8,711.7v-9.6c0-1,0.4-1.4,1.3-1.4h4.7c1,0,1.4,0.5,1.4,1.4v9.6c0,1-0.5,1.4-1.4,1.4h-4.7
			C1367.2,713.1,1366.8,712.6,1366.8,711.7z M1366.8,771v-49.3c0-1,0.4-1.4,1.3-1.4h4.7c1,0,1.4,0.5,1.4,1.4V771
			c0,1-0.5,1.4-1.4,1.4h-4.6C1367.3,772.4,1366.8,772,1366.8,771z"/>
		<path class="st7" d="M1419.3,767.3v3.8c0,0.9-0.5,1.3-1.4,1.3h-14.8c-4.7,0-8.4-1.3-11.1-4s-4-6.4-4-11.2v-21.9
			c0-4.8,1.3-8.5,4-11.2s6.4-4,11.1-4h14.8c1,0,1.4,0.5,1.4,1.4v3.8c0,0.9-0.5,1.3-1.4,1.3h-14c-5.7,0-8.5,3-8.5,8.9v21.3
			c0,5.9,2.8,8.9,8.5,8.9h14C1418.8,765.9,1419.3,766.4,1419.3,767.3z"/>
		<path class="st7" d="M1435.7,772.4h-4.6c-1,0-1.4-0.5-1.4-1.4v-69.1c0-1,0.5-1.4,1.4-1.4h4.6c1,0,1.4,0.5,1.4,1.4V771
			C1437.2,772,1436.7,772.4,1435.7,772.4z M1459.3,720.3h5.1c0.6,0,0.9,0.2,1.1,0.5s0.1,0.7-0.3,1.2l-15,23.3v0.4l16.6,25.2
			c0.3,0.5,0.3,0.9,0.1,1.2c-0.2,0.3-0.6,0.5-1.1,0.5h-4.8c-1.3,0-2.3-0.5-2.9-1.4l-15.8-24.4c-0.4-0.7-0.4-1.4,0-2.2l14.5-22.9
			C1457.2,720.7,1458,720.3,1459.3,720.3z"/>
		<path class="st7" d="M1481.6,772.4h-4.6c-1,0-1.4-0.5-1.4-1.4v-69.1c0-1,0.5-1.4,1.4-1.4h4.6c1,0,1.4,0.5,1.4,1.4V771
			C1483,772,1482.5,772.4,1481.6,772.4z"/>
		<path class="st7" d="M1517.6,772.4h-5.7c-4.6,0-8.3-1.3-10.8-4c-2.6-2.7-3.9-6.4-3.9-11.2v-35.6c0-1,0.5-1.4,1.4-1.4h4.6
			c1,0,1.4,0.5,1.4,1.4v35.3c0,5.9,2.8,8.9,8.5,8.9h5.8c3.1,0,5.4-0.8,7.1-2.5c1.6-1.6,2.5-4,2.5-7v-34.8c0-1,0.5-1.4,1.4-1.4h4.6
			c1,0,1.4,0.5,1.4,1.4v49.3c0,1-0.5,1.4-1.4,1.4h-4.6c-1,0-1.4-0.5-1.4-1.4v-4h-0.4C1526.3,770.6,1522.9,772.4,1517.6,772.4z"/>
		<path class="st7" d="M1556.1,772.4h-4.6c-1,0-1.4-0.5-1.4-1.4v-49.3c0-1,0.5-1.4,1.4-1.4h4.6c1,0,1.4,0.5,1.4,1.4v4h0.4
			c1.7-3.6,5.2-5.4,10.4-5.4h5.7c4.6,0,8.3,1.3,10.8,4c2.6,2.7,3.9,6.4,3.9,11.2v35.6c0,1-0.5,1.4-1.4,1.4h-4.6
			c-1,0-1.4-0.5-1.4-1.4v-35.3c0-5.9-2.9-8.9-8.6-8.9h-5.7c-3.1,0-5.4,0.8-7.1,2.5c-1.6,1.6-2.5,4-2.5,7v34.8
			C1557.5,772,1557,772.4,1556.1,772.4z"/>
		<path class="st7" d="M1622.2,769.7h-5.7c-4.6,0-8.3-1.3-10.8-4c-2.6-2.7-3.9-6.4-3.9-11.2v-19.1c0-4.8,1.3-8.5,4-11.2
			s6.4-4,11.1-4h22.2c1,0,1.4,0.5,1.4,1.4v50.8c0,4.7-1.4,8.4-4,11.1c-2.7,2.7-6.4,4-11.1,4h-18.8c-1,0-1.5-0.5-1.5-1.4v-3.8
			c0-1,0.5-1.4,1.5-1.4h17.9c5.7,0,8.6-2.9,8.6-8.8v-7.9h-0.4C1630.9,767.9,1627.4,769.7,1622.2,769.7z M1633,753.7v-26
			c0-0.6-0.3-0.9-1-0.9h-14.2c-5.7,0-8.6,3-8.6,8.9v18.5c0,5.9,2.9,8.9,8.6,8.9h5.7c3.1,0,5.4-0.8,7.1-2.5
			C1632.2,759,1633,756.7,1633,753.7z"/>
	</g>
</g>
</svg>
